<svg xmlns="http://www.w3.org/2000/svg" width="128" height="128" viewBox="0 0 128 128" version="1.1"><path d="M 59.617 21.389 C 58.841 24.482, 54.794 25.566, 51.670 23.520 C 49.513 22.106, 49.190 22.169, 47.080 24.414 C 45.489 26.109, 45.013 27.467, 45.489 28.964 C 46.431 31.934, 43.581 36, 40.556 36 C 38.671 36, 38.008 36.685, 37.454 39.211 C 36.877 41.837, 37.135 42.678, 38.874 43.833 C 41.480 45.563, 41.748 50.733, 39.323 52.506 C 37.861 53.575, 37.813 54.133, 38.944 56.866 C 39.950 59.293, 40.857 60, 42.966 60 C 46.323 60, 49.120 62.906, 48.766 66.024 C 48.389 69.332, 53.029 72.051, 55.520 69.983 C 57.848 68.052, 69.900 67.960, 72.224 69.857 C 73.658 71.027, 74.471 71.048, 77.045 69.981 C 79.649 68.903, 80.043 68.307, 79.522 66.232 C 78.719 63.033, 81.401 60, 85.034 60 C 87.143 60, 88.050 59.293, 89.056 56.866 C 90.187 54.133, 90.139 53.575, 88.677 52.506 C 86.252 50.733, 86.520 45.563, 89.126 43.833 C 90.865 42.678, 91.123 41.837, 90.546 39.211 C 89.992 36.685, 89.329 36, 87.444 36 C 84.419 36, 81.569 31.934, 82.511 28.964 C 82.987 27.467, 82.511 26.109, 80.920 24.414 C 78.810 22.169, 78.487 22.106, 76.330 23.520 C 73.206 25.566, 69.159 24.482, 68.383 21.389 C 67.883 19.397, 67.155 19, 64 19 C 60.845 19, 60.117 19.397, 59.617 21.389 M 56.500 29.622 C 51.823 32.161, 49.866 34.177, 47.881 38.500 C 44.764 45.288, 46.081 53.264, 51.222 58.736 C 54.214 61.921, 55.309 61.612, 59.133 56.501 C 63.247 51.004, 66.340 49.895, 69.301 52.856 C 71.185 54.740, 71.301 55.421, 70.349 58.988 C 69.760 61.194, 69.599 63, 69.991 63 C 72.217 63, 77.820 57.862, 79.815 53.992 C 82.180 49.404, 82.178 49.459, 80.560 36.197 C 80.007 31.656, 78.618 30.309, 73.712 29.556 C 63.460 27.983, 59.490 27.998, 56.500 29.622 M 71.629 32.513 C 70.797 33.346, 68.731 34.304, 67.037 34.643 C 63.367 35.377, 62.913 35.949, 63.678 38.877 C 64.181 40.801, 64.683 41.001, 67.380 40.360 C 69.096 39.951, 71.619 39.662, 72.986 39.718 C 75.689 39.827, 79 38.405, 79 37.135 C 79 36.699, 78.033 36.377, 76.851 36.421 C 74.001 36.526, 73.332 34.347, 75.959 33.513 C 77.098 33.152, 77.771 32.438, 77.456 31.928 C 76.573 30.500, 73.316 30.827, 71.629 32.513 M 56.502 36.375 C 53.969 38.227, 54.902 42.416, 57.944 42.845 C 61.013 43.278, 63.332 40.489, 61.989 37.980 C 60.690 35.552, 58.502 34.912, 56.502 36.375 M 57.229 39.188 C 57.847 41.042, 60 41.349, 60 39.583 C 60 38.712, 59.288 38, 58.417 38 C 57.546 38, 57.011 38.534, 57.229 39.188 M 60.250 43.706 C 57.733 44.191, 57.448 45.694, 59.161 49.453 C 60.387 52.145, 61.480 52.651, 62.500 51 C 62.840 50.450, 64.216 50, 65.559 50 C 66.902 50, 68 49.732, 68 49.404 C 68 48.347, 63.886 42.995, 63.182 43.136 C 62.807 43.211, 61.487 43.467, 60.250 43.706 M 64.446 55.087 C 63.416 56.755, 65.733 58.667, 67.113 57.287 C 68.267 56.133, 67.545 54, 66 54 C 65.515 54, 64.816 54.489, 64.446 55.087 M 24.797 75.680 C 22.818 76.201, 21.689 79.027, 22.557 81.289 C 22.889 82.153, 24.515 83.332, 26.170 83.910 C 29.411 85.039, 29.583 87.650, 26.392 87.281 C 25.352 87.161, 23.838 87.298, 23.028 87.585 C 21.732 88.045, 21.732 88.219, 23.028 89.038 C 25.106 90.353, 29.379 90.221, 30.800 88.800 C 32.965 86.635, 32.085 83.983, 28.500 81.867 C 24.207 79.335, 23.973 77.622, 28 78.213 C 31.210 78.684, 32.286 76.707, 29.418 75.607 C 27.747 74.966, 27.496 74.970, 24.797 75.680 M 90 76.500 C 90 77.325, 90.675 78, 91.500 78 C 92.325 78, 93 77.325, 93 76.500 C 93 75.675, 92.325 75, 91.500 75 C 90.675 75, 90 75.675, 90 76.500 M 33 79.917 C 33 80.421, 33.927 82.996, 35.059 85.637 C 36.905 89.944, 36.957 90.559, 35.559 91.581 C 33.465 93.112, 33.594 94, 35.912 94 C 37.350 94, 38.503 92.267, 40.572 86.994 C 42.084 83.140, 43.054 79.720, 42.727 79.394 C 41.647 78.314, 40.164 79.978, 39.496 83.020 C 38.713 86.584, 37.408 86.135, 36.497 81.989 C 35.913 79.328, 33 77.603, 33 79.917 M 45 84.698 C 45 88.650, 45.367 90, 46.443 90 C 47.425 90, 47.983 88.644, 48.193 85.750 C 48.408 82.776, 48.950 81.500, 50 81.500 C 51.050 81.500, 51.592 82.776, 51.807 85.750 C 52.017 88.644, 52.575 90, 53.557 90 C 55.404 90, 55.567 81.714, 53.750 80.212 C 53.063 79.644, 50.813 79.228, 48.750 79.288 L 45 79.396 45 84.698 M 57.997 80.503 C 56.379 82.453, 56.401 86.573, 58.040 88.548 C 58.817 89.484, 60.526 89.982, 62.338 89.801 C 66.173 89.417, 67.213 87.027, 63.425 87.303 C 61.936 87.411, 60.519 86.938, 60.276 86.250 C 59.975 85.400, 60.981 85, 63.417 85 C 67.358 85, 68.139 83.282, 65.429 80.571 C 63.438 78.581, 59.622 78.546, 57.997 80.503 M 69 84.736 C 69 91.038, 71.292 91.803, 71.810 85.673 C 72.012 83.287, 72.625 82, 73.560 82 C 74.352 82, 75 81.355, 75 80.567 C 75 79.622, 73.977 79.163, 72 79.219 C 69.045 79.303, 69 79.387, 69 84.736 M 77.416 81.488 C 75.446 84.495, 76.347 87.746, 79.557 89.208 C 81.377 90.037, 82.330 89.971, 83.586 88.929 C 85.026 87.734, 85.182 87.809, 84.842 89.532 C 84.553 91, 83.639 91.500, 81.244 91.500 C 76.945 91.500, 76.614 93.415, 80.844 93.820 C 86.028 94.317, 88 91.878, 88 84.972 L 88 79.254 83.499 79.163 C 79.789 79.089, 78.720 79.497, 77.416 81.488 M 90 84.500 C 90 88.722, 90.348 90, 91.500 90 C 92.652 90, 93 88.722, 93 84.500 C 93 80.278, 92.652 79, 91.500 79 C 90.348 79, 90 80.278, 90 84.500 M 97.250 79.662 C 94.615 80.726, 96.076 82.142, 99.118 81.474 C 101.504 80.950, 102.132 81.107, 101.790 82.145 C 101.544 82.890, 100.399 83.640, 99.244 83.810 C 98.090 83.981, 96.607 84.768, 95.950 85.560 C 94.049 87.851, 96.490 89.882, 101.070 89.818 L 105 89.764 105 85.582 C 105 83.282, 104.460 80.860, 103.800 80.200 C 102.587 78.987, 99.543 78.737, 97.250 79.662 M 60.500 82 C 60.160 82.550, 60.835 83, 62 83 C 63.165 83, 63.840 82.550, 63.500 82 C 63.160 81.450, 62.485 81, 62 81 C 61.515 81, 60.840 81.450, 60.500 82 M 80.141 82.330 C 78.442 84.378, 79.836 87.166, 82.377 86.803 C 83.891 86.587, 84.500 85.786, 84.500 84.014 C 84.500 81.161, 81.934 80.170, 80.141 82.330 M 98.459 86.067 C 98.096 86.653, 98.050 87.384, 98.357 87.690 C 99.179 88.513, 102 87.229, 102 86.031 C 102 84.674, 99.303 84.701, 98.459 86.067 M 26 102 C 26 106, 26.429 109, 27 109 C 27.550 109, 28 107.875, 28 106.500 C 28 105.078, 28.577 104, 29.339 104 C 30.076 104, 31.192 105.125, 31.818 106.500 C 33.023 109.145, 35 109.890, 35 107.700 C 35 106.985, 34.460 105.860, 33.800 105.200 C 32.867 104.267, 32.867 103.733, 33.800 102.800 C 37.079 99.521, 34.045 95, 28.566 95 C 26.056 95, 26 95.152, 26 102 M 48.204 101.647 L 48.500 108.293 52.179 108.667 C 55.109 108.965, 56.177 108.585, 57.429 106.798 C 58.293 105.564, 59 104.012, 59 103.349 C 59 101.338, 56.005 99, 53.429 99 C 51.667 99, 51 98.451, 51 97 C 51 95.863, 50.333 95, 49.454 95 C 48.185 95, 47.962 96.190, 48.204 101.647 M 80 96.500 C 80 97.417, 80.484 98.005, 81.075 97.808 C 81.666 97.611, 82.150 97.023, 82.150 96.500 C 82.150 95.977, 81.666 95.389, 81.075 95.192 C 80.484 94.995, 80 95.583, 80 96.500 M 73 97.417 C 73 98.196, 72.438 99.062, 71.750 99.341 C 70.808 99.723, 70.788 100.054, 71.669 100.683 C 72.311 101.142, 72.986 103.089, 73.169 105.009 C 73.428 107.744, 73.987 108.569, 75.750 108.820 C 76.987 108.995, 78 108.658, 78 108.070 C 78 107.481, 77.550 107, 77 107 C 75.598 107, 75.745 101.252, 77.159 100.780 C 77.924 100.525, 77.678 99.647, 76.437 98.197 C 74.272 95.669, 73 95.380, 73 97.417 M 28.177 99.667 C 28.571 101.699, 30.032 102.263, 31.878 101.096 C 33.690 99.949, 32.424 98, 29.868 98 C 28.525 98, 27.961 98.556, 28.177 99.667 M 37.671 101.059 C 35.681 103.901, 36.892 107.205, 40.381 108.451 C 42.562 109.230, 43.437 109.008, 45.222 107.222 C 47.029 105.415, 47.236 104.570, 46.433 102.272 C 45.132 98.550, 39.933 97.831, 37.671 101.059 M 60.783 101.578 C 58.738 106.066, 62.934 110.262, 67.422 108.217 C 70.246 106.931, 71.021 102.421, 68.800 100.200 C 66.579 97.979, 62.069 98.754, 60.783 101.578 M 80.195 103.750 C 80.363 106.362, 80.950 108.500, 81.500 108.500 C 82.050 108.500, 82.637 106.362, 82.805 103.750 C 83.050 99.924, 82.796 99, 81.500 99 C 80.204 99, 79.950 99.924, 80.195 103.750 M 85.540 101.299 C 83.739 104.047, 84.342 106.578, 87.155 108.083 C 89.272 109.216, 93 108.439, 93 106.865 C 93 106.315, 92.213 106.110, 91.250 106.410 C 88.810 107.169, 86.731 105.622, 87.179 103.380 C 87.440 102.076, 88.393 101.512, 90.291 101.540 C 93.729 101.591, 93.260 99.609, 89.735 99.190 C 87.867 98.967, 86.675 99.567, 85.540 101.299 M 95.667 99.667 C 94.272 101.061, 95.094 103.086, 97.500 104.182 C 98.875 104.808, 100 105.748, 100 106.269 C 100 106.790, 98.875 106.934, 97.500 106.589 C 94.567 105.853, 94.080 107.573, 96.962 108.488 C 99.617 109.331, 103.313 107.259, 102.578 105.342 C 102.260 104.514, 102 103.648, 102 103.418 C 102 103.188, 101.127 103, 100.059 103 C 98.991 103, 97.840 102.550, 97.500 102 C 97.149 101.433, 97.990 101, 99.441 101 C 100.848 101, 102 100.550, 102 100 C 102 98.891, 96.720 98.613, 95.667 99.667 M 39.360 102.504 C 38.510 104.720, 41.561 107.839, 43.087 106.313 C 44.643 104.757, 43.807 101.587, 41.735 101.188 C 40.778 101.003, 39.709 101.595, 39.360 102.504 M 51.701 101.632 C 50.699 102.635, 50.835 105.780, 51.910 106.444 C 53.666 107.530, 56.109 105.766, 55.803 103.633 C 55.500 101.520, 53.022 100.311, 51.701 101.632 M 63.667 101.667 C 62.617 102.717, 62.888 105.813, 64.096 106.559 C 65.652 107.521, 68.393 104.466, 67.668 102.578 C 67.050 100.966, 64.865 100.468, 63.667 101.667" stroke="none" fill="#191919" fill-rule="evenodd"/><path d="M 0 64.007 L 0 128.015 64.250 127.757 L 128.500 127.500 128.757 63.750 L 129.015 0 64.507 0 L 0 0 0 64.007 M 0.471 64.500 C 0.471 99.700, 0.597 113.955, 0.750 96.178 C 0.903 78.400, 0.903 49.600, 0.749 32.178 C 0.596 14.755, 0.471 29.300, 0.471 64.500 M 59.617 21.389 C 58.841 24.482, 54.794 25.566, 51.670 23.520 C 49.513 22.106, 49.190 22.169, 47.080 24.414 C 45.489 26.109, 45.013 27.467, 45.489 28.964 C 46.431 31.934, 43.581 36, 40.556 36 C 38.671 36, 38.008 36.685, 37.454 39.211 C 36.877 41.837, 37.135 42.678, 38.874 43.833 C 41.480 45.563, 41.748 50.733, 39.323 52.506 C 37.861 53.575, 37.813 54.133, 38.944 56.866 C 39.950 59.293, 40.857 60, 42.966 60 C 46.323 60, 49.120 62.906, 48.766 66.024 C 48.389 69.332, 53.029 72.051, 55.520 69.983 C 57.848 68.052, 69.900 67.960, 72.224 69.857 C 73.658 71.027, 74.471 71.048, 77.045 69.981 C 79.649 68.903, 80.043 68.307, 79.522 66.232 C 78.719 63.033, 81.401 60, 85.034 60 C 87.143 60, 88.050 59.293, 89.056 56.866 C 90.187 54.133, 90.139 53.575, 88.677 52.506 C 86.252 50.733, 86.520 45.563, 89.126 43.833 C 90.865 42.678, 91.123 41.837, 90.546 39.211 C 89.992 36.685, 89.329 36, 87.444 36 C 84.419 36, 81.569 31.934, 82.511 28.964 C 82.987 27.467, 82.511 26.109, 80.920 24.414 C 78.810 22.169, 78.487 22.106, 76.330 23.520 C 73.206 25.566, 69.159 24.482, 68.383 21.389 C 67.883 19.397, 67.155 19, 64 19 C 60.845 19, 60.117 19.397, 59.617 21.389 M 56.500 29.622 C 51.823 32.161, 49.866 34.177, 47.881 38.500 C 44.764 45.288, 46.081 53.264, 51.222 58.736 C 54.214 61.921, 55.309 61.612, 59.133 56.501 C 63.247 51.004, 66.340 49.895, 69.301 52.856 C 71.185 54.740, 71.301 55.421, 70.349 58.988 C 69.760 61.194, 69.599 63, 69.991 63 C 72.217 63, 77.820 57.862, 79.815 53.992 C 82.180 49.404, 82.178 49.459, 80.560 36.197 C 80.007 31.656, 78.618 30.309, 73.712 29.556 C 63.460 27.983, 59.490 27.998, 56.500 29.622 M 71.629 32.513 C 70.797 33.346, 68.731 34.304, 67.037 34.643 C 63.367 35.377, 62.913 35.949, 63.678 38.877 C 64.181 40.801, 64.683 41.001, 67.380 40.360 C 69.096 39.951, 71.619 39.662, 72.986 39.718 C 75.689 39.827, 79 38.405, 79 37.135 C 79 36.699, 78.033 36.377, 76.851 36.421 C 74.001 36.526, 73.332 34.347, 75.959 33.513 C 77.098 33.152, 77.771 32.438, 77.456 31.928 C 76.573 30.500, 73.316 30.827, 71.629 32.513 M 56.502 36.375 C 53.969 38.227, 54.902 42.416, 57.944 42.845 C 61.013 43.278, 63.332 40.489, 61.989 37.980 C 60.690 35.552, 58.502 34.912, 56.502 36.375 M 57.229 39.188 C 57.847 41.042, 60 41.349, 60 39.583 C 60 38.712, 59.288 38, 58.417 38 C 57.546 38, 57.011 38.534, 57.229 39.188 M 60.250 43.706 C 57.733 44.191, 57.448 45.694, 59.161 49.453 C 60.387 52.145, 61.480 52.651, 62.500 51 C 62.840 50.450, 64.216 50, 65.559 50 C 66.902 50, 68 49.732, 68 49.404 C 68 48.347, 63.886 42.995, 63.182 43.136 C 62.807 43.211, 61.487 43.467, 60.250 43.706 M 64.446 55.087 C 63.416 56.755, 65.733 58.667, 67.113 57.287 C 68.267 56.133, 67.545 54, 66 54 C 65.515 54, 64.816 54.489, 64.446 55.087 M 24.797 75.680 C 22.818 76.201, 21.689 79.027, 22.557 81.289 C 22.889 82.153, 24.515 83.332, 26.170 83.910 C 29.411 85.039, 29.583 87.650, 26.392 87.281 C 25.352 87.161, 23.838 87.298, 23.028 87.585 C 21.732 88.045, 21.732 88.219, 23.028 89.038 C 25.106 90.353, 29.379 90.221, 30.800 88.800 C 32.965 86.635, 32.085 83.983, 28.500 81.867 C 24.207 79.335, 23.973 77.622, 28 78.213 C 31.210 78.684, 32.286 76.707, 29.418 75.607 C 27.747 74.966, 27.496 74.970, 24.797 75.680 M 90 76.500 C 90 77.325, 90.675 78, 91.500 78 C 92.325 78, 93 77.325, 93 76.500 C 93 75.675, 92.325 75, 91.500 75 C 90.675 75, 90 75.675, 90 76.500 M 33 79.917 C 33 80.421, 33.927 82.996, 35.059 85.637 C 36.905 89.944, 36.957 90.559, 35.559 91.581 C 33.465 93.112, 33.594 94, 35.912 94 C 37.350 94, 38.503 92.267, 40.572 86.994 C 42.084 83.140, 43.054 79.720, 42.727 79.394 C 41.647 78.314, 40.164 79.978, 39.496 83.020 C 38.713 86.584, 37.408 86.135, 36.497 81.989 C 35.913 79.328, 33 77.603, 33 79.917 M 45 84.698 C 45 88.650, 45.367 90, 46.443 90 C 47.425 90, 47.983 88.644, 48.193 85.750 C 48.408 82.776, 48.950 81.500, 50 81.500 C 51.050 81.500, 51.592 82.776, 51.807 85.750 C 52.017 88.644, 52.575 90, 53.557 90 C 55.404 90, 55.567 81.714, 53.750 80.212 C 53.063 79.644, 50.813 79.228, 48.750 79.288 L 45 79.396 45 84.698 M 57.997 80.503 C 56.379 82.453, 56.401 86.573, 58.040 88.548 C 58.817 89.484, 60.526 89.982, 62.338 89.801 C 66.173 89.417, 67.213 87.027, 63.425 87.303 C 61.936 87.411, 60.519 86.938, 60.276 86.250 C 59.975 85.400, 60.981 85, 63.417 85 C 67.358 85, 68.139 83.282, 65.429 80.571 C 63.438 78.581, 59.622 78.546, 57.997 80.503 M 69 84.736 C 69 91.038, 71.292 91.803, 71.810 85.673 C 72.012 83.287, 72.625 82, 73.560 82 C 74.352 82, 75 81.355, 75 80.567 C 75 79.622, 73.977 79.163, 72 79.219 C 69.045 79.303, 69 79.387, 69 84.736 M 77.416 81.488 C 75.446 84.495, 76.347 87.746, 79.557 89.208 C 81.377 90.037, 82.330 89.971, 83.586 88.929 C 85.026 87.734, 85.182 87.809, 84.842 89.532 C 84.553 91, 83.639 91.500, 81.244 91.500 C 76.945 91.500, 76.614 93.415, 80.844 93.820 C 86.028 94.317, 88 91.878, 88 84.972 L 88 79.254 83.499 79.163 C 79.789 79.089, 78.720 79.497, 77.416 81.488 M 90 84.500 C 90 88.722, 90.348 90, 91.500 90 C 92.652 90, 93 88.722, 93 84.500 C 93 80.278, 92.652 79, 91.500 79 C 90.348 79, 90 80.278, 90 84.500 M 97.250 79.662 C 94.615 80.726, 96.076 82.142, 99.118 81.474 C 101.504 80.950, 102.132 81.107, 101.790 82.145 C 101.544 82.890, 100.399 83.640, 99.244 83.810 C 98.090 83.981, 96.607 84.768, 95.950 85.560 C 94.049 87.851, 96.490 89.882, 101.070 89.818 L 105 89.764 105 85.582 C 105 83.282, 104.460 80.860, 103.800 80.200 C 102.587 78.987, 99.543 78.737, 97.250 79.662 M 60.500 82 C 60.160 82.550, 60.835 83, 62 83 C 63.165 83, 63.840 82.550, 63.500 82 C 63.160 81.450, 62.485 81, 62 81 C 61.515 81, 60.840 81.450, 60.500 82 M 80.141 82.330 C 78.442 84.378, 79.836 87.166, 82.377 86.803 C 83.891 86.587, 84.500 85.786, 84.500 84.014 C 84.500 81.161, 81.934 80.170, 80.141 82.330 M 98.459 86.067 C 98.096 86.653, 98.050 87.384, 98.357 87.690 C 99.179 88.513, 102 87.229, 102 86.031 C 102 84.674, 99.303 84.701, 98.459 86.067 M 26 102 C 26 106, 26.429 109, 27 109 C 27.550 109, 28 107.875, 28 106.500 C 28 105.078, 28.577 104, 29.339 104 C 30.076 104, 31.192 105.125, 31.818 106.500 C 33.023 109.145, 35 109.890, 35 107.700 C 35 106.985, 34.460 105.860, 33.800 105.200 C 32.867 104.267, 32.867 103.733, 33.800 102.800 C 37.079 99.521, 34.045 95, 28.566 95 C 26.056 95, 26 95.152, 26 102 M 48.204 101.647 L 48.500 108.293 52.179 108.667 C 55.109 108.965, 56.177 108.585, 57.429 106.798 C 58.293 105.564, 59 104.012, 59 103.349 C 59 101.338, 56.005 99, 53.429 99 C 51.667 99, 51 98.451, 51 97 C 51 95.863, 50.333 95, 49.454 95 C 48.185 95, 47.962 96.190, 48.204 101.647 M 80 96.500 C 80 97.417, 80.484 98.005, 81.075 97.808 C 81.666 97.611, 82.150 97.023, 82.150 96.500 C 82.150 95.977, 81.666 95.389, 81.075 95.192 C 80.484 94.995, 80 95.583, 80 96.500 M 73 97.417 C 73 98.196, 72.438 99.062, 71.750 99.341 C 70.808 99.723, 70.788 100.054, 71.669 100.683 C 72.311 101.142, 72.986 103.089, 73.169 105.009 C 73.428 107.744, 73.987 108.569, 75.750 108.820 C 76.987 108.995, 78 108.658, 78 108.070 C 78 107.481, 77.550 107, 77 107 C 75.598 107, 75.745 101.252, 77.159 100.780 C 77.924 100.525, 77.678 99.647, 76.437 98.197 C 74.272 95.669, 73 95.380, 73 97.417 M 28.177 99.667 C 28.571 101.699, 30.032 102.263, 31.878 101.096 C 33.690 99.949, 32.424 98, 29.868 98 C 28.525 98, 27.961 98.556, 28.177 99.667 M 37.671 101.059 C 35.681 103.901, 36.892 107.205, 40.381 108.451 C 42.562 109.230, 43.437 109.008, 45.222 107.222 C 47.029 105.415, 47.236 104.570, 46.433 102.272 C 45.132 98.550, 39.933 97.831, 37.671 101.059 M 60.783 101.578 C 58.738 106.066, 62.934 110.262, 67.422 108.217 C 70.246 106.931, 71.021 102.421, 68.800 100.200 C 66.579 97.979, 62.069 98.754, 60.783 101.578 M 80.195 103.750 C 80.363 106.362, 80.950 108.500, 81.500 108.500 C 82.050 108.500, 82.637 106.362, 82.805 103.750 C 83.050 99.924, 82.796 99, 81.500 99 C 80.204 99, 79.950 99.924, 80.195 103.750 M 85.540 101.299 C 83.739 104.047, 84.342 106.578, 87.155 108.083 C 89.272 109.216, 93 108.439, 93 106.865 C 93 106.315, 92.213 106.110, 91.250 106.410 C 88.810 107.169, 86.731 105.622, 87.179 103.380 C 87.440 102.076, 88.393 101.512, 90.291 101.540 C 93.729 101.591, 93.260 99.609, 89.735 99.190 C 87.867 98.967, 86.675 99.567, 85.540 101.299 M 95.667 99.667 C 94.272 101.061, 95.094 103.086, 97.500 104.182 C 98.875 104.808, 100 105.748, 100 106.269 C 100 106.790, 98.875 106.934, 97.500 106.589 C 94.567 105.853, 94.080 107.573, 96.962 108.488 C 99.617 109.331, 103.313 107.259, 102.578 105.342 C 102.260 104.514, 102 103.648, 102 103.418 C 102 103.188, 101.127 103, 100.059 103 C 98.991 103, 97.840 102.550, 97.500 102 C 97.149 101.433, 97.990 101, 99.441 101 C 100.848 101, 102 100.550, 102 100 C 102 98.891, 96.720 98.613, 95.667 99.667 M 39.360 102.504 C 38.510 104.720, 41.561 107.839, 43.087 106.313 C 44.643 104.757, 43.807 101.587, 41.735 101.188 C 40.778 101.003, 39.709 101.595, 39.360 102.504 M 51.701 101.632 C 50.699 102.635, 50.835 105.780, 51.910 106.444 C 53.666 107.530, 56.109 105.766, 55.803 103.633 C 55.500 101.520, 53.022 100.311, 51.701 101.632 M 63.667 101.667 C 62.617 102.717, 62.888 105.813, 64.096 106.559 C 65.652 107.521, 68.393 104.466, 67.668 102.578 C 67.050 100.966, 64.865 100.468, 63.667 101.667" stroke="none" fill="#f2f1ee" fill-rule="evenodd"/></svg>